<svg xmlns="http://www.w3.org/2000/svg" viewBox="0 0 40 40" fill="none" stroke="#AAFF00" stroke-width="1.5" stroke-linecap="round" stroke-linejoin="round">
  <!-- Chat/Lightbulb: Creative Consulting -->
  <path d="M8 8h24v18a2 2 0 01-2 2H18l-6 6v-6h-2a2 2 0 01-2-2V8z" fill="#AAFF00" fill-opacity="0.05"/>
  <path d="M8 8h24v18a2 2 0 01-2 2H18l-6 6v-6h-2a2 2 0 01-2-2V8z"/>
  <!-- Lightbulb inside -->
  <path d="M20 12v0a4 4 0 014 4c0 2-1.5 3-2 4h-4c-.5-1-2-2-2-4a4 4 0 014-4z" fill="#AAFF00" fill-opacity="0.15"/>
  <path d="M18 22h4M18.5 24h3"/>
  <!-- Rays -->
  <line x1="20" y1="9" x2="20" y2="10" opacity="0.5"/>
  <line x1="25" y1="11" x2="24.5" y2="12" opacity="0.5"/>
  <line x1="15" y1="11" x2="15.5" y2="12" opacity="0.5"/>
</svg>
